<svg width="35" height="35" viewBox="0 0 35 35" fill="none" xmlns="http://www.w3.org/2000/svg">
<circle cx="17.5" cy="17.5" r="17.5" fill="white"/>
<path d="M22.1666 10.916H13.8333C11.3333 10.916 9.66663 12.166 9.66663 15.0827V20.916C9.66663 23.8327 11.3333 25.0827 13.8333 25.0827H22.1666C24.6666 25.0827 26.3333 23.8327 26.3333 20.916V15.0827C26.3333 12.166 24.6666 10.916 22.1666 10.916ZM22.5583 15.991L19.95 18.0743C19.4 18.516 18.7 18.7327 18 18.7327C17.3 18.7327 16.5916 18.516 16.05 18.0743L13.4416 15.991C13.175 15.7743 13.1333 15.3743 13.3416 15.1077C13.5583 14.841 13.95 14.791 14.2166 15.0077L16.825 17.091C17.4583 17.5993 18.5333 17.5993 19.1666 17.091L21.775 15.0077C22.0416 14.791 22.4416 14.8327 22.65 15.1077C22.8666 15.3743 22.825 15.7743 22.5583 15.991Z" fill="#7F7F7F"/>
</svg>
