<svg width="35" height="35" viewBox="0 0 35 35" fill="none" xmlns="http://www.w3.org/2000/svg">
<circle cx="17.5" cy="17.5" r="17.5" fill="#F5F5F5"/>
<path d="M15.58 19.0395H13.6C13.28 19.0395 13.18 18.9195 13.18 18.6195V16.1995C13.18 15.8795 13.3 15.7795 13.6 15.7795H15.58V14.0195C15.58 13.2195 15.72 12.4595 16.12 11.7595C16.54 11.0395 17.14 10.5595 17.9 10.2795C18.4 10.0995 18.9 10.0195 19.44 10.0195H21.4C21.68 10.0195 21.8 10.1395 21.8 10.4195V12.6995C21.8 12.9795 21.68 13.0995 21.4 13.0995C20.86 13.0995 20.32 13.0995 19.78 13.1195C19.24 13.1195 18.96 13.3795 18.96 13.9395C18.94 14.5395 18.96 15.1195 18.96 15.7395H21.28C21.6 15.7395 21.72 15.8595 21.72 16.1795V18.5995C21.72 18.9195 21.62 19.0195 21.28 19.0195H18.96V25.5395C18.96 25.8795 18.86 25.9995 18.5 25.9995H16C15.7 25.9995 15.58 25.8795 15.58 25.5795V19.0395Z" fill="#7F7F7F"/>
</svg>
