<svg width="40" height="40" viewBox="0 0 40 40" fill="none" xmlns="http://www.w3.org/2000/svg">
<circle cx="20" cy="20" r="20" fill="white"/>
<path d="M27.1834 17.0423C26.3084 13.1923 22.95 11.459 20 11.459C20 11.459 20 11.459 19.9917 11.459C17.05 11.459 13.6834 13.184 12.8084 17.034C11.8334 21.334 14.4667 24.9757 16.85 27.2673C17.7334 28.1173 18.8667 28.5423 20 28.5423C21.1334 28.5423 22.2667 28.1173 23.1417 27.2673C25.525 24.9757 28.1584 21.3423 27.1834 17.0423ZM20 21.2173C18.55 21.2173 17.375 20.0423 17.375 18.5923C17.375 17.1423 18.55 15.9673 20 15.9673C21.45 15.9673 22.625 17.1423 22.625 18.5923C22.625 20.0423 21.45 21.2173 20 21.2173Z" fill="#7F7F7F"/>
</svg>
