<svg width="35" height="35" viewBox="0 0 35 35" fill="none" xmlns="http://www.w3.org/2000/svg">
<circle cx="17.5" cy="17.5" r="17.5" fill="white"/>
<path d="M22.6833 16.9577C22.325 16.9577 22.0416 16.666 22.0416 16.316C22.0416 16.0077 21.7333 15.366 21.2166 14.8077C20.7083 14.266 20.15 13.9493 19.6833 13.9493C19.325 13.9493 19.0416 13.6577 19.0416 13.3077C19.0416 12.9577 19.3333 12.666 19.6833 12.666C20.5166 12.666 21.3916 13.116 22.1583 13.9243C22.875 14.6827 23.3333 15.6243 23.3333 16.3077C23.3333 16.666 23.0416 16.9577 22.6833 16.9577Z" fill="#7F7F7F"/>
<path d="M25.6917 16.9577C25.3334 16.9577 25.05 16.666 25.05 16.316C25.05 13.3577 22.6417 10.9577 19.6917 10.9577C19.3334 10.9577 19.05 10.666 19.05 10.316C19.05 9.96602 19.3334 9.66602 19.6834 9.66602C23.35 9.66602 26.3334 12.6493 26.3334 16.316C26.3334 16.666 26.0417 16.9577 25.6917 16.9577Z" fill="#7F7F7F"/>
<path d="M17.2083 20.4577L15.6666 21.9993C15.3416 22.3243 14.825 22.3243 14.4916 22.0077C14.4 21.916 14.3083 21.8327 14.2166 21.741C13.3583 20.8743 12.5833 19.966 11.8916 19.016C11.2083 18.066 10.6583 17.116 10.2583 16.1743C9.86663 15.2243 9.66663 14.316 9.66663 13.4493C9.66663 12.8827 9.76663 12.341 9.96663 11.841C10.1666 11.3327 10.4833 10.866 10.925 10.4493C11.4583 9.92435 12.0416 9.66602 12.6583 9.66602C12.8916 9.66602 13.125 9.71602 13.3333 9.81602C13.55 9.91602 13.7416 10.066 13.8916 10.2827L15.825 13.0077C15.975 13.216 16.0833 13.4077 16.1583 13.591C16.2333 13.766 16.275 13.941 16.275 14.0993C16.275 14.2993 16.2166 14.4993 16.1 14.691C15.9916 14.8827 15.8333 15.0827 15.6333 15.2827L15 15.941C14.9083 16.0327 14.8666 16.141 14.8666 16.2743C14.8666 16.341 14.875 16.3993 14.8916 16.466C14.9166 16.5327 14.9416 16.5827 14.9583 16.6327C15.1083 16.9077 15.3666 17.266 15.7333 17.6993C16.1083 18.1327 16.5083 18.5743 16.9416 19.016C17.025 19.0993 17.1166 19.1827 17.2 19.266C17.5333 19.591 17.5416 20.1243 17.2083 20.4577Z" fill="#7F7F7F"/>
<path d="M26.3083 23.2742C26.3083 23.5076 26.2667 23.7492 26.1833 23.9826C26.1583 24.0492 26.1333 24.1159 26.1 24.1826C25.9583 24.4826 25.775 24.7659 25.5333 25.0326C25.125 25.4826 24.675 25.8076 24.1667 26.0159C24.1583 26.0159 24.15 26.0242 24.1417 26.0242C23.65 26.2242 23.1167 26.3326 22.5417 26.3326C21.6917 26.3326 20.7833 26.1326 19.825 25.7242C18.8667 25.3159 17.9083 24.7659 16.9583 24.0742C16.6333 23.8326 16.3083 23.5909 16 23.3326L18.725 20.6076C18.9583 20.7826 19.1667 20.9159 19.3417 21.0076C19.3833 21.0242 19.4333 21.0492 19.4917 21.0742C19.5583 21.0992 19.625 21.1076 19.7 21.1076C19.8417 21.1076 19.95 21.0576 20.0417 20.9659L20.675 20.3409C20.8833 20.1326 21.0833 19.9742 21.275 19.8742C21.4667 19.7576 21.6583 19.6992 21.8667 19.6992C22.025 19.6992 22.1917 19.7326 22.375 19.8076C22.5583 19.8826 22.75 19.9909 22.9583 20.1326L25.7167 22.0909C25.9333 22.2409 26.0833 22.4159 26.175 22.6242C26.2583 22.8326 26.3083 23.0409 26.3083 23.2742Z" fill="#7F7F7F"/>
</svg>
