<svg width="775" height="700" viewBox="0 0 775 700" fill="none" xmlns="http://www.w3.org/2000/svg">
<g style="mix-blend-mode:difference" opacity="0.1">
<path d="M433.506 350.004L419.728 394.471C419.665 394.763 419.383 395.008 419.059 395.092L373.77 405.389C373.447 405.472 373.17 405.336 372.909 405.127L341.399 370.957C341.211 370.763 341.144 370.366 341.207 370.074L354.985 325.606C355.048 325.314 355.329 325.069 355.654 324.986L400.942 314.688C401.266 314.605 401.542 314.741 401.804 314.95L433.314 349.121C433.502 349.314 433.6 349.565 433.537 349.857C433.537 349.857 433.522 349.931 433.506 350.004ZM356.524 326.626L343.04 370.086L373.872 403.498L418.188 393.451L431.673 349.991L400.841 316.579L356.524 326.626Z" fill="#0059FF"/>
<path d="M435.324 345.116L424.834 393.504C424.771 393.796 424.561 394.057 424.237 394.14L377.149 409.252C376.825 409.335 376.532 409.273 376.271 409.063L339.673 375.787C339.412 375.578 339.329 375.254 339.391 374.962L349.882 326.574C349.945 326.281 350.154 326.02 350.478 325.937L397.567 310.825C397.89 310.742 398.183 310.805 398.444 311.014L435.043 344.29C435.231 344.484 435.329 344.734 435.34 345.042C435.266 345.027 435.34 345.042 435.324 345.116ZM351.542 327.39L341.272 374.754L377.103 407.33L423.205 392.541L433.475 345.176L397.643 312.601L351.542 327.39Z" fill="#0059FF"/>
<path d="M429.525 392.674L380.995 413.061C380.745 413.159 380.363 413.154 380.102 412.944L338.232 381.059C337.971 380.849 337.872 380.598 337.877 380.217L344.537 327.944C344.6 327.652 344.809 327.391 345.076 327.219L393.606 306.833C393.857 306.734 394.238 306.739 394.499 306.948L436.37 338.834C436.631 339.044 436.729 339.294 436.724 339.676L430.064 391.948C429.986 392.314 429.849 392.59 429.525 392.674ZM393.887 308.729L346.36 328.72L339.847 379.952L380.861 411.195L428.388 391.205L434.901 339.972L393.887 308.729Z" fill="#0059FF"/>
<path d="M435.085 390.66L385.562 416.724C385.296 416.895 384.93 416.817 384.654 416.681L337.386 386.77C337.109 386.634 336.952 386.294 336.942 385.986L339.123 329.995C339.113 329.687 339.322 329.426 339.589 329.255L389.111 303.19C389.378 303.019 389.743 303.097 390.021 303.233L437.289 333.144C437.565 333.28 437.721 333.62 437.732 333.928L435.551 389.919L435.535 389.992C435.472 390.285 435.336 390.561 435.085 390.66ZM389.554 305.045L340.961 330.697L338.765 385.69L385.235 415.047L433.827 389.395L436.023 334.402L389.554 305.045Z" fill="#0059FF"/>
<path d="M440.697 388.043L390.688 420.276C390.422 420.448 390.114 420.458 389.837 420.322L336.956 393.028C336.679 392.892 336.507 392.626 336.497 392.318L333.625 332.791C333.615 332.483 333.751 332.207 334.017 332.034L384.026 299.801C384.292 299.63 384.601 299.62 384.877 299.755L437.758 327.05C438.035 327.185 438.207 327.452 438.217 327.76L441.089 387.286C441.074 387.359 441.074 387.359 441.058 387.433C441.084 387.667 440.947 387.945 440.697 388.043ZM384.589 301.453L335.379 333.169L338.164 391.682L390.141 418.552L439.35 386.835L436.566 328.323L384.589 301.453Z" fill="#0059FF"/>
<path d="M446.468 384.692L396.422 423.496C396.155 423.668 395.831 423.751 395.554 423.615L336.992 399.612C336.716 399.476 336.47 399.194 336.46 398.886L327.944 336.079C327.934 335.771 327.998 335.479 328.28 335.233L378.325 296.43C378.592 296.258 378.917 296.174 379.193 296.31L437.755 320.313C438.031 320.449 438.277 320.732 438.287 321.04L446.803 383.846C446.787 383.919 446.844 384.008 446.829 384.082C446.766 384.373 446.645 384.577 446.468 384.692ZM378.946 298.17L329.715 336.384L338.143 398.177L395.786 421.829L445.017 383.614L436.604 321.749L378.946 298.17Z" fill="#0059FF"/>
<path d="M452.305 380.67L402.833 426.407C402.639 426.595 402.316 426.678 401.95 426.599L337.639 406.561C337.346 406.498 337.101 406.216 337.017 405.892L322.105 340.102C322.022 339.778 322.158 339.502 322.367 339.24L371.84 293.504C372.033 293.316 372.357 293.233 372.723 293.312L437.034 313.35C437.326 313.413 437.571 313.695 437.654 314.019L452.567 379.809C452.624 379.897 452.593 380.044 452.577 380.117C452.53 380.336 452.41 380.54 452.305 380.67ZM372.694 295.218L323.981 340.276L338.643 405.094L402.019 424.854L450.734 379.797L436.071 314.979L372.694 295.218Z" fill="#0059FF"/>
<path d="M458.008 375.855L409.866 428.917C409.657 429.178 409.333 429.261 409.041 429.198L339.042 413.903C338.749 413.84 338.488 413.631 338.405 413.307L316.547 344.951C316.464 344.628 316.527 344.335 316.737 344.074L364.878 291.013C365.087 290.752 365.411 290.669 365.703 290.732L435.702 306.027C435.995 306.09 436.256 306.299 436.34 306.623L458.196 374.978C458.238 375.14 458.223 375.213 458.264 375.375C458.217 375.594 458.186 375.741 458.008 375.855ZM365.765 292.582L318.308 344.948L339.842 412.316L408.891 427.406L456.347 375.039L434.813 307.671L365.765 292.582Z" fill="#0059FF"/>
<path d="M463.665 370.186L417.539 430.948C417.329 431.209 417.079 431.309 416.697 431.303L341.057 421.603C340.765 421.54 340.504 421.331 340.331 421.065L310.891 350.618C310.793 350.367 310.798 349.986 311.007 349.724L357.118 289.035C357.328 288.774 357.579 288.675 357.96 288.681L433.6 298.381C433.892 298.444 434.153 298.653 434.325 298.92L463.855 369.309C463.896 369.471 463.938 369.633 463.906 369.779C463.859 369.998 463.755 370.129 463.665 370.186ZM358.255 290.504L312.772 350.41L341.889 419.87L416.49 429.422L461.974 369.516L432.856 300.057L358.255 290.504Z" fill="#0059FF"/>
<path d="M469.113 363.711L425.879 432.364C425.743 432.64 425.403 432.797 425.094 432.807L344.021 429.512C343.713 429.522 343.452 429.313 343.28 429.046L305.499 357.187C305.327 356.92 305.405 356.555 305.542 356.278L348.776 287.626C348.913 287.349 349.252 287.192 349.56 287.182L430.634 290.478C430.942 290.468 431.203 290.676 431.375 290.943L469.156 362.802C469.271 362.98 469.239 363.126 469.265 363.361C469.234 363.507 469.202 363.653 469.113 363.711ZM350.003 289.037L307.338 356.818L344.692 427.82L424.71 431.041L467.374 363.26L430.021 292.258L350.003 289.037Z" fill="#0059FF"/>
<path d="M474.298 356.333L434.833 433.065C434.697 433.342 434.43 433.513 434.122 433.524L347.939 437.621C347.631 437.631 347.353 437.495 347.182 437.228L300.464 364.593C300.291 364.327 300.281 364.019 300.417 363.742L339.882 287.01C340.019 286.733 340.285 286.561 340.594 286.551L426.777 282.454C427.085 282.444 427.362 282.58 427.534 282.846L474.252 355.481C474.366 355.659 474.393 355.894 474.361 356.04C474.419 356.13 474.387 356.276 474.298 356.333ZM341.156 288.202L302.188 364.047L348.39 435.882L433.56 431.873L472.528 356.029L426.326 284.193L341.156 288.202Z" fill="#0059FF"/>
<path d="M479.142 348.04L444.413 432.982C444.276 433.259 443.994 433.504 443.686 433.514L352.747 445.845C352.438 445.855 352.146 445.792 351.901 445.509L295.634 372.809C295.462 372.542 295.379 372.218 295.514 371.942L330.244 286.999C330.38 286.722 330.663 286.477 330.971 286.467L421.91 274.137C422.218 274.127 422.51 274.189 422.756 274.472L479.022 347.173C479.137 347.35 479.236 347.601 479.189 347.821C479.173 347.894 479.158 347.967 479.142 348.04ZM331.68 288.15L297.374 372.189L353.052 444.074L443.035 431.921L477.34 347.881L421.663 275.996L331.68 288.15Z" fill="#0059FF"/>
<path d="M483.429 338.791L454.547 432.107C454.484 432.399 454.202 432.645 453.878 432.728L358.595 454.222C358.271 454.306 357.995 454.169 357.734 453.96L291.332 382.138C291.144 381.945 291.061 381.621 291.14 381.255L320.167 287.971C320.23 287.678 320.513 287.433 320.836 287.349L416.119 265.856C416.443 265.773 416.72 265.908 416.981 266.118L483.382 337.939C483.57 338.133 483.67 338.384 483.607 338.676C483.444 338.718 483.444 338.718 483.429 338.791ZM321.65 288.901L293.062 381.21L358.769 452.347L453.08 431.103L481.595 338.779L415.961 267.657L321.65 288.901Z" fill="#0059FF"/>
<path d="M487.156 328.578L465.225 430.122C465.162 430.415 464.953 430.676 464.629 430.759L365.634 462.394C365.31 462.478 365.017 462.414 364.756 462.205L287.781 392.239C287.52 392.03 287.436 391.706 287.499 391.413L309.503 289.885C309.566 289.592 309.775 289.331 310.099 289.248L409.078 257.686C409.402 257.603 409.695 257.665 409.956 257.875L486.932 327.841C487.12 328.035 487.219 328.285 487.229 328.594C487.156 328.578 487.156 328.578 487.156 328.578ZM311.074 290.758L289.275 391.336L365.557 460.618L463.564 429.306L485.364 328.728L409.082 259.446L311.074 290.758Z" fill="#0059FF"/>
<path d="M475.749 427.796L373.85 470.435C373.599 470.533 373.217 470.528 372.956 470.318L284.862 403.314C284.601 403.105 284.502 402.855 284.508 402.473L298.386 292.846C298.449 292.553 298.658 292.292 298.925 292.12L400.897 249.497C401.148 249.398 401.529 249.404 401.79 249.613L489.885 316.617C490.146 316.826 490.244 317.077 490.239 317.458L476.272 427.143C476.282 427.451 476.073 427.712 475.749 427.796ZM401.104 251.378L300.062 293.589L286.315 402.25L373.627 468.627L474.685 426.342L488.431 317.681L401.104 251.378Z" fill="#0059FF"/>
<path d="M487.354 423.636L383.256 478.271C382.989 478.444 382.623 478.365 382.347 478.229L282.793 415.415C282.516 415.278 282.36 414.939 282.35 414.63L286.895 297.18C286.885 296.872 287.094 296.611 287.36 296.439L391.459 241.803C391.726 241.632 392.091 241.71 392.368 241.846L491.922 304.661C492.198 304.796 492.355 305.137 492.365 305.445L487.82 422.894L487.805 422.968C487.741 423.26 487.621 423.464 487.354 423.636ZM391.86 243.496L288.618 297.704L284.131 414.173L382.798 476.49L486.039 422.282L490.526 305.813L391.86 243.496Z" fill="#0059FF"/>
<path d="M499.185 418.072L393.9 485.687C393.633 485.86 393.325 485.87 393.048 485.734L281.695 428.336C281.418 428.2 281.246 427.933 281.236 427.625L275.152 302.686C275.142 302.377 275.278 302.101 275.545 301.928L380.815 234.386C381.081 234.214 381.389 234.204 381.666 234.34L493.019 291.738C493.297 291.874 493.468 292.14 493.478 292.448L499.562 417.389C499.546 417.462 499.546 417.462 499.531 417.535C499.556 417.77 499.363 417.958 499.185 418.072ZM381.288 236.095L276.891 303.136L282.976 427.006L393.442 483.906L497.839 416.864L491.843 292.938L381.288 236.095Z" fill="#0059FF"/>
<path d="M511.226 411.18L405.96 492.57C405.694 492.743 405.37 492.826 405.092 492.689L281.771 442.202C281.494 442.067 281.249 441.784 281.239 441.476L263.183 309.599C263.174 309.29 263.237 308.998 263.518 308.753L368.785 227.363C369.052 227.19 369.376 227.107 369.652 227.244L492.974 277.73C493.251 277.866 493.496 278.149 493.506 278.457L511.562 410.334C511.546 410.407 511.603 410.496 511.587 410.569C511.54 410.788 511.404 411.065 511.226 411.18ZM369.463 229.191L264.954 309.903L282.848 440.751L405.267 490.815L509.776 410.102L491.881 279.255L369.463 229.191Z" fill="#0059FF"/>
<path d="M523.307 402.683L419.266 498.643C419.072 498.831 418.749 498.914 418.383 498.836L282.997 456.769C282.704 456.706 282.46 456.424 282.377 456.1L251.032 318.073C250.949 317.749 251.085 317.473 251.294 317.212L355.336 221.252C355.529 221.064 355.854 220.98 356.218 221.059L491.604 263.126C491.897 263.189 492.142 263.471 492.225 263.795L523.569 401.822C523.627 401.911 523.595 402.057 523.58 402.13C523.532 402.349 523.485 402.569 523.307 402.683ZM356.264 222.981L252.98 318.263L284.075 455.318L418.452 497.091L521.751 401.736L490.658 264.682L356.264 222.981Z" fill="#0059FF"/>
<path d="M535.349 392.579L434.03 503.968C433.822 504.229 433.498 504.312 433.205 504.249L285.864 472.232C285.572 472.169 285.311 471.96 285.228 471.636L239.189 328.304C239.106 327.981 239.168 327.688 239.378 327.427L340.696 216.039C340.905 215.778 341.229 215.695 341.522 215.758L488.862 247.775C489.155 247.837 489.416 248.046 489.5 248.371L535.522 391.775C535.563 391.937 535.548 392.01 535.59 392.172C535.558 392.318 535.453 392.449 535.349 392.579ZM341.672 217.549L240.965 328.228L286.665 470.645L433.055 502.457L533.746 391.852L488.046 249.435L341.672 217.549Z" fill="#0059FF"/>
<path d="M547.213 380.828L450.091 508.266C449.882 508.527 449.631 508.627 449.249 508.621L290.118 488.373C289.827 488.31 289.566 488.101 289.393 487.834L227.4 340.075C227.301 339.824 227.307 339.442 227.516 339.181L324.639 211.743C324.847 211.482 325.098 211.383 325.479 211.388L484.61 231.636C484.903 231.699 485.164 231.908 485.336 232.175L547.418 379.877C547.459 380.039 547.501 380.202 547.469 380.348C547.349 380.551 547.245 380.682 547.213 380.828ZM325.687 213.269L229.193 339.925L290.862 486.697L449.026 506.814L545.521 380.158L483.851 233.386L325.687 213.269Z" fill="#0059FF"/>
<path d="M558.634 367.216L467.577 511.261C467.441 511.538 467.101 511.694 466.793 511.704L296.257 504.992C295.949 505.002 295.688 504.792 295.516 504.526L216.053 353.694C215.881 353.428 215.96 353.062 216.096 352.786L307.153 208.741C307.288 208.464 307.629 208.307 307.936 208.297L478.472 215.011C478.78 215.001 479.041 215.209 479.213 215.476L558.692 366.234C558.807 366.412 558.775 366.558 558.801 366.793C558.77 366.939 558.665 367.07 558.634 367.216ZM308.379 210.152L217.819 353.309L296.797 503.195L466.335 509.923L556.837 366.676L477.859 216.792L308.379 210.152Z" fill="#0059FF"/>
<path d="M569.465 351.723L486.286 512.84C486.15 513.118 485.883 513.289 485.575 513.299L304.223 522.007C303.915 522.017 303.638 521.882 303.466 521.615L205.293 369.205C205.121 368.939 205.111 368.631 205.247 368.354L288.426 207.236C288.562 206.96 288.829 206.787 289.137 206.777L470.489 198.069C470.797 198.059 471.074 198.195 471.246 198.462L569.419 350.871C569.534 351.049 569.56 351.284 569.528 351.43C569.585 351.519 569.554 351.666 569.465 351.723ZM289.699 208.428L207.018 368.658L304.674 520.268L485.012 511.649L567.694 351.418L470.038 199.808L289.699 208.428Z" fill="#0059FF"/>
<path d="M579.564 334.312L506.341 512.797C506.206 513.074 505.923 513.32 505.615 513.33L314.254 539.392C313.946 539.402 313.654 539.339 313.408 539.057L195.287 386.561C195.115 386.295 195.031 385.971 195.167 385.694L268.39 207.209C268.526 206.933 268.808 206.687 269.117 206.677L460.477 180.614C460.785 180.604 461.077 180.667 461.323 180.949L579.533 333.388C579.648 333.566 579.747 333.816 579.7 334.035C579.596 334.166 579.579 334.239 579.564 334.312ZM269.825 208.36L196.953 385.926L314.502 537.532L504.906 511.647L577.689 334.138L460.157 182.458L269.825 208.36Z" fill="#0059FF"/>
<path d="M588.633 314.916L527.566 510.858C527.502 511.151 527.221 511.396 526.897 511.48L326.498 556.788C326.174 556.872 325.897 556.735 325.636 556.526L186.305 405.892C186.116 405.699 186.033 405.375 186.112 405.009L247.163 209.14C247.226 208.847 247.509 208.602 247.832 208.519L448.143 163.267C448.466 163.184 448.743 163.32 449.004 163.529L588.425 314.106C588.613 314.299 588.711 314.55 588.649 314.843L588.633 314.916ZM248.631 210.144L187.93 405.095L326.598 554.898L526.041 509.765L586.742 314.814L448.057 165.085L248.631 210.144Z" fill="#0059FF"/>
<path d="M596.369 293.556L549.85 506.86C549.786 507.153 549.577 507.414 549.253 507.497L341.136 574.096C340.812 574.179 340.52 574.116 340.259 573.907L178.572 427.26C178.311 427.05 178.228 426.726 178.29 426.434L224.809 213.13C224.872 212.838 225.082 212.577 225.406 212.494L433.596 145.91C433.92 145.827 434.212 145.89 434.473 146.099L596.16 292.747C596.348 292.94 596.447 293.191 596.457 293.499C596.369 293.556 596.369 293.556 596.369 293.556ZM226.454 214.019L180.155 426.3L341.059 572.32L548.278 505.986L594.576 293.706L433.673 147.686L226.454 214.019Z" fill="#0059FF"/>
<path d="M602.692 270.204L573.16 500.552C573.097 500.845 572.888 501.106 572.621 501.277L358.194 591.153C357.943 591.252 357.562 591.246 357.301 591.037L172.389 450.637C172.128 450.429 172.029 450.178 172.035 449.796L201.566 219.448C201.629 219.156 201.838 218.895 202.105 218.723L416.533 128.847C416.783 128.749 417.165 128.754 417.426 128.963L602.411 269.378C602.598 269.572 602.755 269.912 602.692 270.204ZM203.242 220.192L173.858 449.5L357.971 589.345L571.484 499.808L600.868 270.5L416.755 130.655L203.242 220.192Z" fill="#0059FF"/>
<path d="M596.78 492.479L377.833 607.623C377.567 607.795 377.201 607.717 376.924 607.581L167.945 475.925C167.668 475.789 167.511 475.449 167.501 475.141L177.412 228.253C177.402 227.944 177.611 227.683 177.878 227.512L396.898 112.384C397.164 112.212 397.53 112.291 397.807 112.427L606.787 244.083C607.063 244.218 607.219 244.558 607.23 244.866L597.246 491.739L597.231 491.811C597.241 492.12 597.031 492.381 596.78 492.479ZM397.21 114.134L179.193 228.866L169.283 474.683L377.448 605.857L595.523 491.215L605.375 245.308L397.21 114.134Z" fill="#0059FF"/>
<path d="M621.535 480.895L400.165 623.288C399.899 623.46 399.591 623.471 399.313 623.335L165.611 503.112C165.334 502.976 165.162 502.709 165.152 502.402L152.803 239.859C152.793 239.551 152.928 239.274 153.195 239.102L374.475 96.7665C374.743 96.5944 375.051 96.5842 375.327 96.7202L609.046 216.869C609.322 217.006 609.495 217.272 609.505 217.58L621.854 480.122C621.838 480.195 621.838 480.195 621.823 480.269C621.922 480.52 621.785 480.796 621.535 480.895ZM375.023 98.4909L154.542 240.31L166.876 501.855L399.691 621.58L620.172 479.761L607.838 218.216L375.023 98.4909Z" fill="#0059FF"/>
<path d="M646.758 466.436L425.362 637.742C425.096 637.914 424.772 637.998 424.494 637.862L165.627 532.191C165.35 532.055 165.105 531.773 165.095 531.465L127.638 254.414C127.628 254.106 127.691 253.814 127.973 253.568L349.368 82.2626C349.635 82.0906 349.959 82.0072 350.236 82.1433L609.103 187.814C609.381 187.95 609.625 188.232 609.636 188.54L647.093 465.59C647.077 465.663 647.134 465.752 647.119 465.826C647.071 466.045 646.951 466.248 646.758 466.436ZM350.004 83.9296L129.409 254.719L166.689 530.813L424.653 636.059L645.249 465.27L607.953 189.25L350.004 83.9296Z" fill="#0059FF"/>
<path d="M672.069 448.706L453.363 650.887C453.169 651.074 452.845 651.158 452.48 651.079L168.386 563.083C168.094 563.021 167.849 562.738 167.766 562.414L102.395 272.165C102.312 271.841 102.448 271.565 102.657 271.304L321.364 69.1234C321.557 68.9355 321.881 68.8523 322.247 68.9309L606.339 156.926C606.632 156.989 606.877 157.272 606.961 157.595L672.347 447.771C672.404 447.86 672.373 448.007 672.357 448.08C672.294 448.372 672.189 448.502 672.069 448.706ZM322.219 70.8376L104.197 272.324L169.333 561.528L452.492 649.245L670.513 447.759L605.377 158.555L322.219 70.8376Z" fill="#0059FF"/>
<path d="M697.289 427.51L484.169 662.03C483.96 662.291 483.636 662.374 483.343 662.311L174.064 595.365C173.772 595.302 173.511 595.093 173.428 594.769L77.2684 293.303C77.185 292.98 77.248 292.687 77.4572 292.426L290.488 57.9636C290.698 57.7026 291.022 57.6194 291.314 57.6824L600.593 124.628C600.886 124.691 601.147 124.9 601.23 125.224L697.389 426.689C697.431 426.851 697.416 426.925 697.457 427.086C697.499 427.249 697.394 427.379 697.289 427.51ZM291.448 59.5474L79.1019 293.315L175.011 593.81L483.267 660.535L695.686 426.782L599.704 126.273L291.448 59.5474Z" fill="#0059FF"/>
<path d="M722.03 402.841L517.952 671.056C517.744 671.317 517.493 671.417 517.111 671.411L183.164 629.146C182.872 629.083 182.611 628.874 182.439 628.608L52.585 318.054C52.486 317.803 52.4915 317.422 52.7007 317.161L256.777 48.9458C256.987 48.6849 257.238 48.5859 257.619 48.5914L591.492 90.8405C591.785 90.9034 592.046 91.1127 592.218 91.3792L722.145 401.948C722.187 402.11 722.228 402.272 722.197 402.419C722.165 402.565 722.134 402.711 722.03 402.841ZM257.842 50.399L54.377 317.904L183.892 627.543L516.888 669.604L720.353 402.098L590.822 92.5325L257.842 50.399Z" fill="#0059FF"/>
</g>
</svg>
