<svg width="60" height="60" viewBox="0 0 60 60" fill="none" xmlns="http://www.w3.org/2000/svg">
<mask id="path-1-inside-1_272_4989" fill="white">
<path d="M0 5C0 2.23858 2.23858 0 5 0H55C57.7614 0 60 2.23858 60 5V55C60 57.7614 57.7614 60 55 60H5C2.23858 60 0 57.7614 0 55V5Z"/>
</mask>
<path d="M0 5C0 2.23858 2.23858 0 5 0H55C57.7614 0 60 2.23858 60 5V55C60 57.7614 57.7614 60 55 60H5C2.23858 60 0 57.7614 0 55V5Z" fill="white"/>
<path d="M-1 3C-1 -0.313708 1.68629 -3 5 -3H55C58.3137 -3 61 -0.313708 61 3L59 5C59 3.89543 57.2091 3 55 3H5C2.79086 3 1 3.89543 1 5L-1 3ZM61 55C61 58.3137 58.3137 61 55 61H5C1.68629 61 -1 58.3137 -1 55H1C1 57.2091 2.79086 59 5 59H55C57.2091 59 59 57.2091 59 55H61ZM5 61C1.68629 61 -1 58.3137 -1 55V3C-1 -0.313708 1.68629 -3 5 -3V3C2.79086 3 1 3.89543 1 5V55C1 57.2091 2.79086 59 5 59V61ZM55 -3C58.3137 -3 61 -0.313708 61 3V55C61 58.3137 58.3137 61 55 61V59C57.2091 59 59 57.2091 59 55V5C59 3.89543 57.2091 3 55 3V-3Z" fill="#015FC9" mask="url(#path-1-inside-1_272_4989)"/>
<g clip-path="url(#clip0_272_4989)">
<path d="M35.4158 20.091V23.3136L29.3887 29.3407C29.0317 29.6856 29.0217 30.2545 29.3664 30.6115C29.7114 30.9683 30.2802 30.9782 30.6373 30.6335C30.6447 30.6264 30.6521 30.619 30.6593 30.6115L36.6867 24.5842H39.9089C40.1473 24.5842 40.3758 24.4897 40.5442 24.321L45.9361 18.9292C46.2871 18.5782 46.2871 18.0091 45.9361 17.6581C45.7674 17.4898 45.539 17.3952 45.3007 17.3949H42.6049V14.6992C42.6047 14.2029 42.2023 13.8008 41.706 13.8008C41.4677 13.8009 41.2393 13.8955 41.0707 14.0639L35.6789 19.4557C35.5105 19.6242 35.4158 19.8527 35.4158 20.091Z" fill="#015FC9"/>
<path d="M32.8294 23.3582C29.1729 21.8069 24.9514 23.5138 23.4001 27.1704C21.8488 30.8269 23.5559 35.0487 27.2123 36.5996C30.8689 38.1509 35.0907 36.4442 36.6417 32.7874C37.0186 31.8991 37.2129 30.9439 37.2129 29.9789C37.2129 29.0139 37.0186 28.0587 36.6417 27.1704L31.9299 31.8821C30.8922 32.95 29.1855 32.9747 28.1176 31.9373C27.0498 30.8997 27.025 29.1929 28.0624 28.125C28.0806 28.1064 28.099 28.0883 28.1176 28.0702L32.8294 23.3582Z" fill="#015FC9"/>
<path d="M45.8782 21.529L43.1893 24.2177C46.3841 31.5032 43.0681 39.9992 35.7826 43.194C28.4973 46.3888 20.0013 43.0726 16.8062 35.7873C13.6114 28.5018 16.9276 20.0058 24.2132 16.811C26.0369 16.0113 28.0066 15.5984 29.9979 15.5984C31.9893 15.5984 33.959 16.0113 35.7826 16.811L38.471 14.1219C29.7016 9.4435 18.8002 12.7598 14.122 21.529C9.44343 30.298 12.7597 41.1997 21.5289 45.8782C30.2983 50.5565 41.1997 47.2403 45.8782 38.471C48.7025 33.1767 48.7025 26.8233 45.8782 21.529Z" fill="#015FC9"/>
<path d="M33.618 20.09C33.6168 19.3798 33.8977 18.6981 34.3989 18.1949C27.8648 15.7504 20.5864 19.0656 18.1417 25.5997C15.6972 32.1339 19.0123 39.4123 25.5464 41.857C32.0806 44.3014 39.359 40.9863 41.8037 34.4522C42.8716 31.598 42.8716 28.4539 41.8037 25.5997C41.3006 26.101 40.6189 26.3819 39.9086 26.3805H38.2482C40.2519 30.9415 38.1791 36.263 33.6181 38.2667C29.0574 40.2706 23.7357 38.1975 21.732 33.6367C19.7281 29.0758 21.8012 23.7543 26.3619 21.7504C27.5055 21.248 28.7409 20.9886 29.99 20.9886C31.2391 20.9886 32.4745 21.248 33.6181 21.7504L33.618 20.09Z" fill="#015FC9"/>
</g>
<defs>
<clipPath id="clip0_272_4989">
<rect width="36" height="36" fill="white" transform="translate(12 12)"/>
</clipPath>
</defs>
</svg>
